# xmcd
# 
# Track frame offsets:
#     150
#     41987
#     85675
#     128425
#     171875
#     215987
# 
# Disc length: 3461
# 
# Revision: 4
# Processed by: cddbd v1.5.2PL0 Copyright (c) Steve Scherf et al.
# Submitted via: fre:ac v1.0.17
# 
DISCID=500d8306
DTITLE=風潮 TCD-4501 - 幽蘭 Orchid
DYEAR=1997
DGENRE=New Age
TTITLE0=國香 ~ 建蘭 Fragrance of the Country
TTITLE1=香祖 ~ 春蘭 Origin of Fragrance
TTITLE2=花中君子 ~ 赤芽素心蘭 Flowers of Nobility
TTITLE3=王者香 ~ 大明蘭 Royal Fragrance
TTITLE4=空谷佳人 ~ 寒蘭 A Beautiful Lady from Empty Valleys
TTITLE5=天下第一香 ~ 報歲蘭 Supreme Fragrance in the World
EXTD=
EXTT0=
EXTT1=
EXTT2=
EXTT3=
EXTT4=
EXTT5=
PLAYORDER=
